<mxfile host="app.diagrams.net" modified="2023-12-13T20:56:30.470Z" agent="Mozilla/5.0 (Windows NT 10.0; Win64; x64) AppleWebKit/537.36 (KHTML, like Gecko) Chrome/119.0.0.0 Safari/537.36" etag="L5qFzt91mHX3E33EULIc" version="22.1.8" type="device">
  <diagram name="Página-1" id="WwvgYSvetgpdfFsQOSM_">
    <mxGraphModel dx="880" dy="434" grid="1" gridSize="10" guides="1" tooltips="1" connect="1" arrows="1" fold="1" page="1" pageScale="1" pageWidth="827" pageHeight="1169" math="0" shadow="0">
      <root>
        <mxCell id="0" />
        <mxCell id="1" parent="0" />
        <mxCell id="klmc4HWkMrXpEyrUxPd7-1" value="" style="rounded=0;whiteSpace=wrap;html=1;" vertex="1" parent="1">
          <mxGeometry x="250" y="60" width="394" height="510" as="geometry" />
        </mxCell>
        <mxCell id="klmc4HWkMrXpEyrUxPd7-10" style="edgeStyle=orthogonalEdgeStyle;rounded=0;orthogonalLoop=1;jettySize=auto;html=1;" edge="1" parent="1" source="klmc4HWkMrXpEyrUxPd7-2" target="klmc4HWkMrXpEyrUxPd7-6">
          <mxGeometry relative="1" as="geometry" />
        </mxCell>
        <mxCell id="klmc4HWkMrXpEyrUxPd7-2" value="Usuario" style="shape=umlActor;verticalLabelPosition=bottom;verticalAlign=top;html=1;outlineConnect=0;" vertex="1" parent="1">
          <mxGeometry x="130" y="110" width="40" height="80" as="geometry" />
        </mxCell>
        <mxCell id="klmc4HWkMrXpEyrUxPd7-3" value="BBDD" style="shape=cylinder3;whiteSpace=wrap;html=1;boundedLbl=1;backgroundOutline=1;size=15;" vertex="1" parent="1">
          <mxGeometry x="570" y="260" width="60" height="80" as="geometry" />
        </mxCell>
        <mxCell id="klmc4HWkMrXpEyrUxPd7-18" style="edgeStyle=orthogonalEdgeStyle;rounded=0;orthogonalLoop=1;jettySize=auto;html=1;entryX=0;entryY=0.5;entryDx=0;entryDy=0;" edge="1" parent="1" source="klmc4HWkMrXpEyrUxPd7-4" target="klmc4HWkMrXpEyrUxPd7-6">
          <mxGeometry relative="1" as="geometry" />
        </mxCell>
        <mxCell id="klmc4HWkMrXpEyrUxPd7-19" style="edgeStyle=orthogonalEdgeStyle;rounded=0;orthogonalLoop=1;jettySize=auto;html=1;entryX=0;entryY=0.5;entryDx=0;entryDy=0;" edge="1" parent="1" source="klmc4HWkMrXpEyrUxPd7-4" target="klmc4HWkMrXpEyrUxPd7-8">
          <mxGeometry relative="1" as="geometry" />
        </mxCell>
        <mxCell id="klmc4HWkMrXpEyrUxPd7-20" style="edgeStyle=orthogonalEdgeStyle;rounded=0;orthogonalLoop=1;jettySize=auto;html=1;" edge="1" parent="1" source="klmc4HWkMrXpEyrUxPd7-4">
          <mxGeometry relative="1" as="geometry">
            <mxPoint x="340" y="360" as="targetPoint" />
          </mxGeometry>
        </mxCell>
        <mxCell id="klmc4HWkMrXpEyrUxPd7-21" style="edgeStyle=orthogonalEdgeStyle;rounded=0;orthogonalLoop=1;jettySize=auto;html=1;" edge="1" parent="1" source="klmc4HWkMrXpEyrUxPd7-4" target="klmc4HWkMrXpEyrUxPd7-9">
          <mxGeometry relative="1" as="geometry">
            <Array as="points">
              <mxPoint x="230" y="340" />
              <mxPoint x="230" y="440" />
            </Array>
          </mxGeometry>
        </mxCell>
        <mxCell id="klmc4HWkMrXpEyrUxPd7-4" value="Cliente" style="shape=umlActor;verticalLabelPosition=bottom;verticalAlign=top;html=1;outlineConnect=0;" vertex="1" parent="1">
          <mxGeometry x="130" y="300" width="40" height="80" as="geometry" />
        </mxCell>
        <mxCell id="klmc4HWkMrXpEyrUxPd7-5" value="Sistema de almaenamiento de Usuarios" style="text;html=1;strokeColor=none;fillColor=none;align=center;verticalAlign=middle;whiteSpace=wrap;rounded=0;" vertex="1" parent="1">
          <mxGeometry x="304" y="70" width="220" height="30" as="geometry" />
        </mxCell>
        <mxCell id="klmc4HWkMrXpEyrUxPd7-14" style="edgeStyle=orthogonalEdgeStyle;rounded=0;orthogonalLoop=1;jettySize=auto;html=1;" edge="1" parent="1" source="klmc4HWkMrXpEyrUxPd7-6" target="klmc4HWkMrXpEyrUxPd7-3">
          <mxGeometry relative="1" as="geometry" />
        </mxCell>
        <mxCell id="klmc4HWkMrXpEyrUxPd7-6" value="Agregar Nombre" style="ellipse;whiteSpace=wrap;html=1;" vertex="1" parent="1">
          <mxGeometry x="350" y="140" width="120" height="50" as="geometry" />
        </mxCell>
        <mxCell id="klmc4HWkMrXpEyrUxPd7-16" style="edgeStyle=orthogonalEdgeStyle;rounded=0;orthogonalLoop=1;jettySize=auto;html=1;" edge="1" parent="1" source="klmc4HWkMrXpEyrUxPd7-7" target="klmc4HWkMrXpEyrUxPd7-3">
          <mxGeometry relative="1" as="geometry" />
        </mxCell>
        <mxCell id="klmc4HWkMrXpEyrUxPd7-7" value="Agregar Contraseña" style="ellipse;whiteSpace=wrap;html=1;" vertex="1" parent="1">
          <mxGeometry x="343" y="330" width="134" height="60" as="geometry" />
        </mxCell>
        <mxCell id="klmc4HWkMrXpEyrUxPd7-8" value="Agregar Correo" style="ellipse;whiteSpace=wrap;html=1;" vertex="1" parent="1">
          <mxGeometry x="354" y="230" width="120" height="60" as="geometry" />
        </mxCell>
        <mxCell id="klmc4HWkMrXpEyrUxPd7-17" style="edgeStyle=orthogonalEdgeStyle;rounded=0;orthogonalLoop=1;jettySize=auto;html=1;" edge="1" parent="1" source="klmc4HWkMrXpEyrUxPd7-9" target="klmc4HWkMrXpEyrUxPd7-3">
          <mxGeometry relative="1" as="geometry" />
        </mxCell>
        <mxCell id="klmc4HWkMrXpEyrUxPd7-9" value="Modificar usuario" style="ellipse;whiteSpace=wrap;html=1;" vertex="1" parent="1">
          <mxGeometry x="350" y="410" width="120" height="60" as="geometry" />
        </mxCell>
        <mxCell id="klmc4HWkMrXpEyrUxPd7-11" value="" style="curved=1;endArrow=classic;html=1;rounded=0;edgeStyle=orthogonalEdgeStyle;entryX=0;entryY=0.5;entryDx=0;entryDy=0;" edge="1" parent="1" target="klmc4HWkMrXpEyrUxPd7-8">
          <mxGeometry width="50" height="50" relative="1" as="geometry">
            <mxPoint x="170" y="150" as="sourcePoint" />
            <mxPoint x="240" y="210" as="targetPoint" />
            <Array as="points">
              <mxPoint x="170" y="190" />
              <mxPoint x="240" y="190" />
              <mxPoint x="240" y="260" />
            </Array>
          </mxGeometry>
        </mxCell>
        <mxCell id="klmc4HWkMrXpEyrUxPd7-12" value="" style="curved=1;endArrow=classic;html=1;rounded=0;edgeStyle=orthogonalEdgeStyle;entryX=0;entryY=0.5;entryDx=0;entryDy=0;" edge="1" parent="1" target="klmc4HWkMrXpEyrUxPd7-7">
          <mxGeometry width="50" height="50" relative="1" as="geometry">
            <mxPoint x="170" y="150" as="sourcePoint" />
            <mxPoint x="310" y="280" as="targetPoint" />
            <Array as="points">
              <mxPoint x="200" y="150" />
              <mxPoint x="200" y="310" />
              <mxPoint x="240" y="310" />
              <mxPoint x="240" y="360" />
            </Array>
          </mxGeometry>
        </mxCell>
        <mxCell id="klmc4HWkMrXpEyrUxPd7-13" value="" style="curved=1;endArrow=classic;html=1;rounded=0;edgeStyle=orthogonalEdgeStyle;entryX=0;entryY=0.5;entryDx=0;entryDy=0;" edge="1" parent="1" source="klmc4HWkMrXpEyrUxPd7-2" target="klmc4HWkMrXpEyrUxPd7-9">
          <mxGeometry width="50" height="50" relative="1" as="geometry">
            <mxPoint x="30" y="260" as="sourcePoint" />
            <mxPoint x="80" y="210" as="targetPoint" />
            <Array as="points">
              <mxPoint x="150" y="260" />
              <mxPoint x="200" y="260" />
              <mxPoint x="200" y="280" />
              <mxPoint x="350" y="280" />
            </Array>
          </mxGeometry>
        </mxCell>
        <mxCell id="klmc4HWkMrXpEyrUxPd7-15" style="edgeStyle=orthogonalEdgeStyle;rounded=0;orthogonalLoop=1;jettySize=auto;html=1;entryX=0.5;entryY=0;entryDx=0;entryDy=0;entryPerimeter=0;" edge="1" parent="1" source="klmc4HWkMrXpEyrUxPd7-8" target="klmc4HWkMrXpEyrUxPd7-3">
          <mxGeometry relative="1" as="geometry" />
        </mxCell>
      </root>
    </mxGraphModel>
  </diagram>
</mxfile>
